<svg width="146" height="40" viewBox="0 0 146 40" fill="none" xmlns="http://www.w3.org/2000/svg">
<path d="M0 39.8851H8.78995V0.000401H0V39.8851ZM31.0947 39.8851H39.8847V0.000401H31.0947V39.8851ZM20.7278 39.8851H29.5177V0.000401H20.7278V39.8851ZM10.367 25.5409H19.1569V0.000401H10.367V25.5409Z" fill="#17406C"/>
<path d="M143.723 29.0043L141.192 33.1493L138.719 29.0043H136.523L140.123 35.1202V39.883H142.225V35.0765L145.912 29.0043H143.723Z" fill="#17406C"/>
<path d="M96.8911 23.6888H92.4334V20.6783H96.4403V19.0349H92.4334V16.3658H96.4185L96.993 14.5986H90.4844V25.4704H96.8911V23.6888Z" fill="#17406C"/>
<path d="M106.999 24.7647V22.7213C106.202 23.361 105.206 23.7007 104.185 23.6814H103.945C103.484 23.6836 103.028 23.5927 102.603 23.4141C102.178 23.2355 101.794 22.9729 101.474 22.6421C101.153 22.3113 100.903 21.9191 100.737 21.4891C100.572 21.059 100.496 20.6 100.512 20.1397C100.497 19.6352 100.586 19.133 100.773 18.6644C100.961 18.1958 101.243 17.7708 101.601 17.416C101.96 17.0612 102.389 16.7841 102.859 16.6022C103.33 16.4202 103.833 16.3372 104.337 16.3583C104.973 16.3583 105.601 16.4973 106.177 16.7658L106.73 15.0638C105.906 14.6728 105.002 14.4811 104.09 14.5042C101.06 14.3883 98.5102 16.7509 98.3947 19.7809C98.3889 19.9344 98.3894 20.0881 98.3964 20.2415C98.2504 23.0492 100.408 25.4436 103.216 25.5896C103.25 25.5912 103.285 25.5929 103.32 25.5937H103.887C104.985 25.6432 106.071 25.3537 106.999 24.7647Z" fill="#17406C"/>
<path d="M116.627 14.5986H108.25V16.4309H111.304V25.4704H113.289V16.4309H116.038L116.627 14.5986Z" fill="#17406C"/>
<path d="M61.8909 35.5128C61.8909 36.9673 61.1638 38.1014 59.4693 38.1014C57.7751 38.1014 57.0039 37.0544 57.0039 35.4984V28.9972H55.0116V35.3602C55.0116 37.2944 55.6735 39.9997 59.4404 39.9997C63.2073 39.9997 63.8906 37.4399 63.8906 35.4109V28.9972H61.8909V35.5128Z" fill="#17406C"/>
<path d="M74.1153 35.6002L67.1342 29.0046H66.8435V39.8834H68.7995V33.3167L75.7732 39.8834H76.0644V29.0046H74.1153V35.6002Z" fill="#17406C"/>
<path d="M79.1038 38.9555C79.1038 39.468 79.5192 39.8834 80.0317 39.8834H80.1682C80.6806 39.8834 81.0961 39.468 81.0961 38.9555V29.9252C81.0961 29.4127 80.6806 28.9973 80.1682 28.9973H80.0317C79.5192 28.9973 79.1038 29.4127 79.1038 29.9252V38.9555Z" fill="#17406C"/>
<path d="M88.0409 36.8436L85.1686 29.0043H83.0525L87.2702 39.8834H88.7754L93.1386 29.0043H91.0226L88.0409 36.8436Z" fill="#17406C"/>
<path d="M115.624 31.8985C115.624 31.3096 116.111 30.6695 117.275 30.6695C118.226 30.6989 119.137 31.0617 119.849 31.6948V29.6587C119.049 29.1312 118.109 28.8574 117.151 28.8731C114.831 28.8731 113.558 30.3277 113.558 32.0292C113.558 35.3309 118.205 34.8802 118.205 36.8799C118.205 37.5563 117.682 38.1307 116.569 38.1307C115.438 38.0667 114.356 37.6466 113.478 36.9306V39.0104C114.435 39.6716 115.574 40.0173 116.736 39.9993C119.056 39.9993 120.423 38.7048 120.423 36.8943C120.423 33.4982 115.624 33.7457 115.624 31.8985Z" fill="#17406C"/>
<path d="M122.954 38.9555C122.954 39.468 123.369 39.8834 123.882 39.8834H124.018C124.531 39.8834 124.946 39.468 124.946 38.9555V29.9252C124.946 29.4127 124.531 28.9973 124.018 28.9973H123.882C123.369 28.9973 122.954 29.4127 122.954 29.9252V38.9555Z" fill="#17406C"/>
<path d="M58.5166 19.7763H56.9095V16.2565H58.6837C58.9172 16.2266 59.1545 16.2492 59.3783 16.3225C59.6021 16.3958 59.8067 16.518 59.9773 16.6803C60.148 16.8426 60.2803 17.0408 60.3648 17.2606C60.4493 17.4804 60.4837 17.7163 60.4657 17.951C60.4753 18.2041 60.4304 18.4562 60.3342 18.6904C60.2379 18.9245 60.0924 19.1353 59.9076 19.3084C59.7228 19.4814 59.503 19.6128 59.263 19.6935C59.023 19.7743 58.7685 19.8025 58.5166 19.7763ZM62.4435 17.9366C62.4435 15.7476 61.1709 14.5697 58.9311 14.5697H55.0186V25.4774H56.9169L56.9095 21.4998H58.8074C61.1127 21.4998 62.4435 20.1252 62.4435 17.9366Z" fill="#17406C"/>
<path d="M78.1437 21.2235C78.82 20.99 79.4004 20.54 79.7948 19.9431C80.1892 19.3462 80.3757 18.6358 80.3253 17.9222C80.3253 15.9076 79.0889 14.5912 76.7547 14.5912H72.9804V25.4992H74.8857V16.2783H76.4347C76.6727 16.2632 76.9113 16.2971 77.1358 16.3778C77.3602 16.4585 77.5657 16.5843 77.7396 16.7475C77.9135 16.9107 78.0522 17.1079 78.1469 17.3268C78.2417 17.5456 78.2906 17.7816 78.2906 18.0201C78.2906 18.2586 78.2417 18.4946 78.1469 18.7135C78.0522 18.9324 77.9135 19.1295 77.7396 19.2927C77.5657 19.4559 77.3602 19.5818 77.1358 19.6625C76.9113 19.7432 76.6727 19.777 76.4347 19.7619H75.0894V19.9001L78.7689 25.4704H80.9505L78.1437 21.2235Z" fill="#17406C"/>
<path d="M84.6741 20.976H88.2591V19.2889H84.6741V16.3658H88.2591L88.8266 14.5986H82.7251V25.47H84.6741V20.976Z" fill="#17406C"/>
<path d="M70.7192 23.6888H66.2686V20.6783H70.2684V19.0349H66.2686V16.3658H70.2466L70.8211 14.5986H64.32V25.4704H70.7192V23.6888Z" fill="#17406C"/>
<path d="M101.007 30.7714L101.581 29.0043H95.0728V39.883H101.487V38.1014H97.0288V35.0839H101.029V33.4475H97.0288V30.7714H101.007Z" fill="#17406C"/>
<path d="M109.346 9.26092H104.868V6.22893H108.886V4.58551H104.868V1.89665H108.864L109.441 0.121666H102.902V11.0507H109.346V9.26092Z" fill="#17406C"/>
<path d="M111.289 32.3352C111.289 30.3136 110.053 28.9972 107.719 28.9972H103.996V39.9053H105.901V30.6844H107.45C107.688 30.6692 107.926 30.7031 108.151 30.7838C108.375 30.8645 108.581 30.9903 108.755 31.1535C108.929 31.3168 109.067 31.5139 109.162 31.7328C109.257 31.9517 109.306 32.1876 109.306 32.4261C109.306 32.6646 109.257 32.9006 109.162 33.1195C109.067 33.3384 108.929 33.5355 108.755 33.6987C108.581 33.862 108.375 33.9878 108.151 34.0685C107.926 34.1492 107.688 34.183 107.45 34.1679H106.075V34.3131L109.762 39.8834H111.944L109.086 35.6365C109.766 35.4058 110.35 34.9572 110.748 34.3602C111.147 33.7632 111.337 33.0514 111.289 32.3352Z" fill="#17406C"/>
<path d="M126.939 30.837H129.993V39.8834H131.978V30.837H134.727L135.316 29.0047H126.939V30.837Z" fill="#17406C"/>
<path d="M65.311 2.80847L66.8216 6.77042H63.8082L65.311 2.80847ZM62.1841 11.0512L63.1252 8.57716H67.5124L68.4535 11.0512H70.6314L66.1836 0.122081H64.4915L60.0132 11.0512H62.1841Z" fill="#17406C"/>
<path d="M78.7281 8.05257C78.7281 4.6453 73.9091 4.88821 73.9091 3.03611C73.9091 2.4439 74.395 1.7989 75.5637 1.7989C76.4442 1.7989 77.3696 2.16346 78.1515 2.83073V0.78975C77.5366 0.356728 76.5885 0 75.442 0C73.1124 0 71.8368 1.43475 71.8368 3.16519C71.8368 6.48173 76.5048 6.02644 76.5048 8.03773C76.5048 8.71324 75.9732 9.29762 74.8577 9.29762C73.9091 9.29762 72.8468 8.89552 71.7535 8.09093V10.1781C72.6266 10.8157 73.8023 11.1724 75.0247 11.1724C77.3548 11.1724 78.7281 9.87415 78.7281 8.05257Z" fill="#17406C"/>
<path d="M82.8682 6.48174H87.8628V11.0507H89.8658V0.121666H87.8628V4.69851H82.8682V0.121666H80.8647V11.0507H82.8682V6.48174Z" fill="#17406C"/>
<path d="M94.54 5.59421L98.9044 11.0511H101.439L96.6882 5.14593L100.999 0.12163H98.6162L94.54 4.93396V0.12163H92.5365V11.0511H94.54V5.59421Z" fill="#17406C"/>
<path d="M118.869 6.74774L111.856 0.122081H111.56V11.0512H113.526V4.45602L120.531 11.0512H120.827V0.122081H118.869V6.74774Z" fill="#17406C"/>
<path d="M55.3288 11.0512H57.3231V1.96305H60.0846L60.6764 0.121668H52.2605V1.96305H55.3288V11.0512Z" fill="#17406C"/>
<path d="M127.499 11.0512V1.96305H130.261L130.852 0.121668H122.437V1.96305H125.505V11.0512H127.499Z" fill="#17406C"/>
</svg>
